<mxfile host="Electron" agent="Mozilla/5.0 (Windows NT 10.0; Win64; x64) AppleWebKit/537.36 (KHTML, like Gecko) draw.io/26.0.9 Chrome/128.0.6613.186 Electron/32.2.5 Safari/537.36" version="26.0.9">
  <diagram name="正圆方程" id="hGHrUc6Nifk0FgQmG0kw">
    <mxGraphModel dx="420" dy="248" grid="1" gridSize="10" guides="1" tooltips="1" connect="1" arrows="1" fold="1" page="1" pageScale="1" pageWidth="827" pageHeight="1169" math="0" shadow="0">
      <root>
        <mxCell id="0" />
        <mxCell id="1" parent="0" />
        <mxCell id="09l91dLtt4qahPeoCE4P-1" value="" style="ellipse;whiteSpace=wrap;html=1;fillColor=none;" vertex="1" parent="1">
          <mxGeometry x="180" y="140" width="320" height="320" as="geometry" />
        </mxCell>
        <mxCell id="09l91dLtt4qahPeoCE4P-2" value="" style="endArrow=classic;html=1;rounded=0;" edge="1" parent="1">
          <mxGeometry width="50" height="50" relative="1" as="geometry">
            <mxPoint x="120" y="300" as="sourcePoint" />
            <mxPoint x="560" y="300" as="targetPoint" />
          </mxGeometry>
        </mxCell>
        <mxCell id="09l91dLtt4qahPeoCE4P-3" value="" style="endArrow=classic;html=1;rounded=0;" edge="1" parent="1">
          <mxGeometry width="50" height="50" relative="1" as="geometry">
            <mxPoint x="340" y="520" as="sourcePoint" />
            <mxPoint x="339.5" y="80" as="targetPoint" />
          </mxGeometry>
        </mxCell>
        <mxCell id="09l91dLtt4qahPeoCE4P-4" value="" style="endArrow=none;html=1;rounded=0;entryX=1;entryY=0;entryDx=0;entryDy=0;" edge="1" parent="1" target="09l91dLtt4qahPeoCE4P-1">
          <mxGeometry width="50" height="50" relative="1" as="geometry">
            <mxPoint x="340" y="300" as="sourcePoint" />
            <mxPoint x="390" y="250" as="targetPoint" />
          </mxGeometry>
        </mxCell>
        <mxCell id="09l91dLtt4qahPeoCE4P-5" value="" style="endArrow=none;html=1;rounded=0;entryX=1;entryY=0;entryDx=0;entryDy=0;" edge="1" parent="1" target="09l91dLtt4qahPeoCE4P-1">
          <mxGeometry width="50" height="50" relative="1" as="geometry">
            <mxPoint x="453" y="300" as="sourcePoint" />
            <mxPoint x="470" y="209.89" as="targetPoint" />
          </mxGeometry>
        </mxCell>
        <mxCell id="09l91dLtt4qahPeoCE4P-7" value="r" style="text;html=1;align=center;verticalAlign=middle;whiteSpace=wrap;rounded=0;fontFamily=Comic Sans MS;" vertex="1" parent="1">
          <mxGeometry x="380" y="220" width="20" height="20" as="geometry" />
        </mxCell>
        <mxCell id="09l91dLtt4qahPeoCE4P-8" value="" style="endArrow=none;html=1;rounded=0;curved=1;" edge="1" parent="1">
          <mxGeometry width="50" height="50" relative="1" as="geometry">
            <mxPoint x="360" y="300" as="sourcePoint" />
            <mxPoint x="350" y="290" as="targetPoint" />
            <Array as="points">
              <mxPoint x="360" y="290" />
            </Array>
          </mxGeometry>
        </mxCell>
        <mxCell id="09l91dLtt4qahPeoCE4P-10" value="Θ" style="text;html=1;align=center;verticalAlign=middle;whiteSpace=wrap;rounded=0;fontFamily=Comic Sans MS;" vertex="1" parent="1">
          <mxGeometry x="360" y="280" width="20" height="20" as="geometry" />
        </mxCell>
        <mxCell id="09l91dLtt4qahPeoCE4P-11" value="r·sinΘ" style="text;html=1;align=center;verticalAlign=middle;whiteSpace=wrap;rounded=0;fontFamily=Comic Sans MS;" vertex="1" parent="1">
          <mxGeometry x="453" y="240" width="40" height="20" as="geometry" />
        </mxCell>
        <mxCell id="09l91dLtt4qahPeoCE4P-13" value="r·cosΘ" style="text;html=1;align=center;verticalAlign=middle;whiteSpace=wrap;rounded=0;fontFamily=Comic Sans MS;" vertex="1" parent="1">
          <mxGeometry x="394" y="300" width="40" height="20" as="geometry" />
        </mxCell>
      </root>
    </mxGraphModel>
  </diagram>
</mxfile>
